<?xml version="1.0" encoding="utf-8"?>
<!-- Generator: Adobe Illustrator 20.1.0, SVG Export Plug-In . SVG Version: 6.00 Build 0)  -->
<svg version="1.1" id="Layer_1" xmlns="http://www.w3.org/2000/svg" xmlns:xlink="http://www.w3.org/1999/xlink" x="0px" y="0px"
	 viewBox="0 0 850.4 850.4" style="enable-background:new 0 0 850.4 850.4;" xml:space="preserve">
<style type="text/css">
	.st0{fill:#D95924;}
</style>
<rect x="-15.1" y="-13.8" width="878.3" height="879.4"/>
<g>
	
		<rect x="429.3" y="120.1" transform="matrix(0.9315 0.3637 -0.3637 0.9315 101.1523 -143.7792)" class="st0" width="6.2" height="153.2"/>
	<path class="st0" d="M523.5,173.7l5.1-12.9l-64-25l-25,64l42.6,16.6l-5.1,12.9l64,25l25-64L523.5,173.7z M484,180.3l-11.4,29.2
		L443.5,198l11.4-29.2L484,180.3l11.4-29.2l27.6,10.8l-21,3.5v0l0,0l-7.4,19.1L484,180.3z M521.6,209.8L510.2,239L481,227.6
		l3.9-10.1l7.4-19.1l18.6,7.3L521.6,209.8l11.4-29.2l29.2,11.4l-11.4,29.2L521.6,209.8z"/>
	
		<rect x="415.7" y="120.1" transform="matrix(-0.9315 0.3637 -0.3637 -0.9315 880.3629 227.7381)" class="st0" width="6.2" height="153.2"/>
	<path class="st0" d="M327.7,173.7l-5.1-12.9l64-25l25,64L369,216.4l5.1,12.9l-64,25l-25-64L327.7,173.7z M367.1,180.3l11.4,29.2
		l29.2-11.4l-11.4-29.2L367.1,180.3l-11.4-29.2l-27.6,10.8l21,3.5v0l0,0l7.4,19.1L367.1,180.3z M329.6,209.8L341,239l29.2-11.4
		l-3.9-10.1l-7.4-19.1l-18.6,7.3L329.6,209.8l-11.4-29.2L289,192l11.4,29.2L329.6,209.8z"/>
	<path class="st0" d="M425.2,98.1c180.6,0,327.1,146.4,327.1,327.1c0,180.6-146.4,327.1-327.1,327.1S98.1,605.8,98.1,425.2
		C98.1,244.6,244.6,98.1,425.2,98.1 M425.2,82c-46.3,0-91.3,9.1-133.6,27c-40.9,17.3-77.6,42-109.1,73.5
		c-31.5,31.5-56.3,68.2-73.5,109.1c-17.9,42.3-27,87.3-27,133.6s9.1,91.3,27,133.6c17.3,40.9,42,77.6,73.5,109.1
		s68.2,56.3,109.1,73.5c42.3,17.9,87.3,27,133.6,27s91.3-9.1,133.6-27c40.9-17.3,77.6-42,109.1-73.5c31.5-31.5,56.3-68.2,73.5-109.1
		c17.9-42.3,27-87.3,27-133.6c0-46.3-9.1-91.3-27-133.6c-17.3-40.9-42-77.6-73.5-109.1c-31.5-31.5-68.2-56.3-109.1-73.5
		C516.5,91.1,471.5,82,425.2,82L425.2,82z"/>
	<g>
		<path class="st0" d="M156.3,536.7l7.6,16.6c0.3,0.6,0.3,1.2,0.1,1.9c-0.2,0.6-0.6,1.1-1.1,1.3l-7.9,3.6c-0.6,0.3-1.1,0.2-1.8,0
			c-0.6-0.3-1.1-0.7-1.4-1.3l-0.6-1.3l-6.6,8.3l-2.8-6l9.3-11.6l2.1,4.5l4.1-1.9l-2.4-5.3l-16.2,7.4l-3.1-6.8L156.3,536.7z"/>
		<path class="st0" d="M166,557.7l10.2,18.2l-5.5,0.2l-5.3-9.5l-4,2.2l5.3,9.5l-3.3,1.8l-5.3-9.5l-4,2.2l6.5,11.7l-5.5,0.2l-8.9-16
			L166,557.7z"/>
		<path class="st0" d="M177,577.1l10.1,15.3c0.2,0.3,0.3,0.6,0.4,0.9c0.1,0.3,0.1,0.6,0,0.9c-0.1,0.3-0.2,0.6-0.3,0.9
			c-0.1,0.3-0.3,0.5-0.6,0.7l-8.5,5.6c-0.3,0.2-0.5,0.3-0.8,0.3c-0.3,0-0.6,0-0.9-0.1c-0.3-0.1-0.6-0.2-0.8-0.4
			c-0.3-0.2-0.5-0.4-0.7-0.7l-6-9l-6.6,4.4l-4.1-6.3L177,577.1z M175.2,594.4l5.1-3.4l-3.2-4.9l-5.1,3.4L175.2,594.4z"/>
		<path class="st0" d="M193.5,601.1l5.2,6.6l-11.5,22.2l-10.3-13.1l3.9-3l3.7,4.8l4.4-8.5l-14.6,3.5l-5.1-6.5L193.5,601.1z"/>
		<path class="st0" d="M206.1,616.5l5,5.6l-16.9,15.2l-5-5.6L206.1,616.5z"/>
		<path class="st0" d="M212.4,623.6l13,12.9c0.5,0.5,0.7,1,0.8,1.7c0,0.7-0.2,1.2-0.6,1.7l-6.1,6.2c-0.4,0.4-1,0.6-1.7,0.6
			c-0.7,0-1.2-0.3-1.7-0.8l-1-1l-3.3,10.1l-4.7-4.7l4.6-14.1l3.5,3.5l3.2-3.2l-4.1-4.1L201.6,645l-5.3-5.3L212.4,623.6z"/>
		<path class="st0" d="M288.1,705.9c0-0.3,0.1-0.6,0.2-0.9l7.5-16.6c0.1-0.3,0.3-0.5,0.5-0.7c0.2-0.2,0.5-0.3,0.8-0.4
			c0.3-0.1,0.6-0.1,0.9-0.1c0.3,0,0.6,0.1,0.9,0.2l16.7,7.5l-4.3,3.5l-9.9-4.5l-5.3,11.7l12.2,5.5l-4.3,3.5l-14.5-6.5
			c-0.3-0.1-0.6-0.3-0.8-0.5c-0.2-0.2-0.4-0.5-0.5-0.8C288.2,706.5,288.2,706.2,288.1,705.9z"/>
		<path class="st0" d="M325.5,698.6l7.9,2.8l2.3,24.9l-15.7-5.5l1.6-4.7l5.7,2l-0.9-9.5l-10.4,10.8l-7.8-2.7L325.5,698.6z"/>
		<path class="st0" d="M344.2,704.8l17.8,4.5c0.7,0.2,1.2,0.5,1.5,1.1c0.4,0.6,0.5,1.1,0.3,1.7l-2.1,8.4c-0.1,0.6-0.5,1-1.1,1.4
			c-0.6,0.3-1.2,0.4-1.9,0.2l-1.4-0.4l2.3,10.4l-6.4-1.6l-3.3-14.5l4.9,1.2l1.1-4.4l-5.6-1.4l-4.3,17.3l-7.3-1.8L344.2,704.8z"/>
		<path class="st0" d="M377.9,730.5l13.3,1.6l0.5-4.5l-10.8-1.3c-0.3,0-0.6-0.1-0.9-0.3c-0.3-0.2-0.5-0.3-0.7-0.6
			c-0.2-0.2-0.4-0.5-0.5-0.8c-0.1-0.3-0.1-0.6-0.1-0.9l1-8.6c0-0.3,0.1-0.6,0.3-0.8c0.2-0.3,0.4-0.5,0.7-0.7
			c0.3-0.2,0.5-0.3,0.9-0.4s0.6-0.1,0.9-0.1l18.2,2.2l-0.6,4.9l-13.3-1.6l-0.5,4.5l10.8,1.3c0.3,0,0.6,0.1,0.9,0.3
			c0.3,0.2,0.5,0.4,0.7,0.6c0.2,0.2,0.4,0.5,0.5,0.8c0.1,0.3,0.1,0.6,0.1,0.9l-1,8.6c0,0.3-0.1,0.6-0.3,0.8
			c-0.2,0.3-0.4,0.5-0.7,0.7c-0.3,0.2-0.5,0.3-0.8,0.4c-0.3,0.1-0.6,0.1-0.9,0.1l-15.8-1.9L377.9,730.5z"/>
		<path class="st0" d="M402.5,715.5l20.8,0.9l-2.7,4.8l-10.8-0.5l-0.2,4.5l10.8,0.5l-0.2,3.8l-10.8-0.5l-0.2,4.5l13.3,0.6l-2.7,4.8
			l-18.3-0.8L402.5,715.5z"/>
		<path class="st0" d="M424.8,716.4l18.3-0.6c0.7,0,1.3,0.2,1.8,0.6c0.5,0.4,0.8,1,0.8,1.6l0.3,8.7c0,0.6-0.2,1.1-0.7,1.6
			c-0.5,0.5-1.1,0.7-1.7,0.7l-1.5,0l5.1,9.3l-6.6,0.2l-7.1-13l5-0.2l-0.2-4.5l-5.8,0.2l0.6,17.8l-7.5,0.2L424.8,716.4z"/>
		<path class="st0" d="M446.8,715.9l8.2-1l7.8,12.8l4.6-14.3l8.3-1l-7.6,23.8l-8.3,1L446.8,715.9z"/>
		<path class="st0" d="M476.8,711.8l7.4-1.4l4.2,22.3l-7.4,1.4L476.8,711.8z"/>
		<path class="st0" d="M491.4,730.8c-0.2-0.2-0.3-0.5-0.4-0.8l-4.4-17.7c-0.1-0.3-0.1-0.6,0-0.9c0.1-0.3,0.2-0.6,0.4-0.8
			c0.2-0.3,0.4-0.5,0.7-0.7c0.3-0.2,0.6-0.3,0.9-0.4l17.8-4.4l-1.2,5.4l-10.5,2.6l3.1,12.5l13-3.2l-1.2,5.4l-15.4,3.8
			c-0.3,0.1-0.6,0.1-1,0.1c-0.3,0-0.6-0.1-0.9-0.3C491.9,731.3,491.7,731.1,491.4,730.8z"/>
		<path class="st0" d="M507.8,704.7l19.8-6.5l-0.8,5.5l-10.3,3.4l1.4,4.3l10.3-3.4l1.2,3.6l-10.3,3.4l1.4,4.3l12.7-4.2l-0.8,5.5
			l-17.4,5.8L507.8,704.7z"/>
		<path class="st0" d="M614.7,674.5c-0.3-0.1-0.5-0.3-0.7-0.6l-11.5-14.1c-0.2-0.2-0.3-0.5-0.4-0.8c-0.1-0.3-0.1-0.6,0-0.9
			c0-0.3,0.1-0.6,0.3-0.9s0.4-0.5,0.6-0.7l12.3-10c0.3-0.2,0.5-0.4,0.8-0.5c0.3-0.1,0.6-0.1,0.9-0.1c0.3,0,0.6,0.1,0.9,0.2
			c0.3,0.1,0.5,0.3,0.7,0.5l9.8,12l5.1,2.2l-16.2,13.2c-0.3,0.2-0.5,0.4-0.8,0.5c-0.3,0.1-0.6,0.1-0.9,0.1
			C615.3,674.7,615,674.7,614.7,674.5z M622.7,663.5l-8.1-10l-4.5,3.7l8.1,10L622.7,663.5z"/>
		<path class="st0" d="M635.1,657.7c-0.3-0.1-0.5-0.3-0.7-0.5l-14.2-14.8l5.4-5.2l12.3,12.8l4.2-4l-12.3-12.8l5.4-5.2l15.7,16.4
			l-13.2,12.7c-0.2,0.2-0.5,0.4-0.8,0.5c-0.3,0.1-0.6,0.2-0.9,0.2S635.4,657.8,635.1,657.7z"/>
		<path class="st0" d="M642.7,619.7l5.4-6.3l24,6.9l-10.8,12.6l-3.8-3.2l3.9-4.6l-9.2-2.6l6.3,13.6l-5.4,6.3L642.7,619.7z"/>
		<path class="st0" d="M655.6,604.6l4.4-6.1l14.4,10.5l6.4-8.8l5.5,0.9l-12.3,16.8L655.6,604.6z"/>
		<path class="st0" d="M668.3,586.9l4.1-6.3l19,12.4l-4.1,6.3L668.3,586.9z"/>
		<path class="st0" d="M680.9,576.3l-3.4,5.8l-4.3-2.5l10.5-18l4.3,2.5l-3.3,5.8l15.4,8.9l-3.8,6.5L680.9,576.3z"/>
		<path class="st0" d="M698.9,558.8l-15,2.5l3.9-8.3l5.7-0.9l-2.9-5.1l3.9-8.3l7.5,13.3l9.2,4.4l-3.2,6.8L698.9,558.8z"/>
	</g>
	<path class="st0" d="M803.1,425.2c0-1.2,0-2.4,0-3.5l18.9-2l-0.6-16.3l-19-0.7c-0.7-11.3-1.8-22.6-3.5-33.7l18.4-4.6l-2.8-16
		l-18.8,2c-2.2-11.1-5-22.1-8.2-32.9l17.5-7.1l-5-15.5l-18.3,4.6c-2.5-7.2-5.3-14.4-8.3-21.5c-1.4-3.4-2.9-6.7-4.4-10l16.4-9.4
		l-7.1-14.6l-17.5,7.1c-5.2-10.1-10.9-19.9-17-29.4l14.9-11.6l-9.1-13.5l-16.4,9.5c-6.5-9.2-13.5-18.1-20.9-26.7l13.2-13.7
		l-10.9-12.1l-15,11.7c-2.4-2.5-4.8-5-7.2-7.4c-5.6-5.6-11.3-10.9-17.1-16.1l11.2-15.4L674,116l-13.2,13.7
		c-8.8-7.1-18-13.7-27.4-19.9l8.9-16.7l-13.8-8.6l-11.1,15.3c-9.7-5.7-19.7-11-29.9-15.9L594,66l-14.9-6.6l-8.9,16.7
		c-10.5-4.4-21.1-8.2-31.8-11.6l3.9-18.5l-15.6-4.5l-6.5,17.8c-10.9-2.8-22-5.2-33.1-7l1.3-18.9l-16.1-2.3l-3.9,18.6
		c-11.2-1.3-22.4-2-33.8-2.3l-1.3-19h-16.3l-1.3,19c-11.3,0.3-22.6,1.1-33.8,2.3L378,31.1l-16.1,2.3l1.3,18.9
		c-11.2,1.8-22.2,4.2-33.1,7l-6.5-17.8L308,46l3.9,18.5c-10.7,3.4-21.4,7.2-31.8,11.6l-8.9-16.7L256.4,66l6.5,17.8
		c-10.2,4.9-20.2,10.2-29.9,15.9l-11.1-15.3L208,93l8.9,16.7c-9.4,6.2-18.5,12.9-27.4,19.9L176.4,116l-12.5,10.5l11.2,15.4
		c-5.9,5.2-11.6,10.5-17.1,16.1c-2.4,2.4-4.9,4.9-7.2,7.4l-15-11.7l-10.9,12.1l13.2,13.7c-7.4,8.6-14.4,17.5-20.9,26.7l-16.4-9.5
		l-9.1,13.5l14.9,11.6c-6.1,9.5-11.7,19.3-17,29.4L72.1,244L65,258.6l16.4,9.4c-1.5,3.3-3,6.6-4.4,10c-3,7.1-5.8,14.2-8.3,21.5
		L50.3,295l-5,15.5l17.5,7.1c-3.2,10.9-6,21.8-8.2,32.9l-18.8-2l-2.8,16l18.4,4.6c-1.7,11.1-2.8,22.4-3.5,33.7l-19,0.7l-0.6,16.3
		l18.9,2c0,1.2,0,2.4,0,3.5c0,10.2,0.4,20.3,1.2,30.3l-18.7,3.3l1.7,16.2l19-0.7c1.5,11.2,3.4,22.4,5.9,33.4l-18.1,5.9l3.9,15.8
		l18.7-3.3c3,10.9,6.5,21.6,10.5,32.2l-17.1,8.3l6.1,15.1l18.1-5.9c4.5,10.4,9.5,20.5,14.9,30.4l-15.8,10.7l8.1,14.1l17.2-8.4
		c5.9,9.6,12.2,19,19,28l-14.3,12.8l10,12.8l15.9-10.8c7.1,8.7,14.7,17,22.7,25.1l-12.4,14.8l11.7,11.3l14.3-12.9
		c8.3,7.7,17,14.9,25.9,21.7l-10.2,16.4l13.2,9.6l12.4-14.8c9.3,6.4,18.8,12.4,28.7,17.9l-7.9,17.6l14.4,7.6l10.2-16.4
		c7.1,3.6,14.4,6.9,21.8,10c3,1.3,6,2.5,9.1,3.7l-5.3,18.6l15.3,5.6l7.8-17.7c10.7,3.6,21.5,6.7,32.5,9.3l-2.7,19.2l15.9,3.4
		l5.3-18.6c11,2,22.2,3.6,33.4,4.6l0,19.4l16.2,1.1l2.7-19.3c5.6,0.2,11.2,0.4,16.9,0.4c5.6,0,11.3-0.1,16.9-0.4l2.7,19.3l16.2-1.1
		l0-19.4c11.2-1.1,22.4-2.6,33.4-4.6l5.3,18.6l15.9-3.4l-2.7-19.2c10.9-2.6,21.8-5.7,32.5-9.3l7.8,17.7l15.3-5.6l-5.3-18.6
		c3-1.2,6.1-2.4,9.1-3.7c7.4-3.1,14.6-6.5,21.8-10l10.2,16.4l14.4-7.6l-7.9-17.6c9.8-5.5,19.4-11.5,28.7-17.9l12.4,14.8l13.2-9.6
		l-10.2-16.4c8.9-6.8,17.5-14.1,25.9-21.7l14.3,12.9l11.7-11.3l-12.4-14.8c8-8.1,15.5-16.4,22.7-25.1l15.9,10.8l10-12.8l-14.3-12.8
		c6.7-9.1,13.1-18.4,19-28l17.2,8.4l8.1-14.1l-15.8-10.7c5.4-9.9,10.4-20,14.9-30.4l18.1,5.9l6.1-15.1l-17.1-8.3
		c4-10.6,7.5-21.3,10.5-32.2l18.7,3.3l3.9-15.8l-18.1-5.9c2.5-11,4.4-22.1,5.9-33.4l19,0.7l1.7-16.2l-18.7-3.3
		C802.7,445.5,803.1,435.4,803.1,425.2z M288.3,101.1c43.4-18.3,89.4-27.6,136.9-27.6c47.5,0,93.6,9.3,136.9,27.6
		c41.9,17.7,79.5,43.1,111.8,75.4c32.3,32.3,57.7,69.9,75.4,111.8c18.3,43.4,27.6,89.4,27.6,136.9c0,47.5-9.3,93.6-27.6,136.9
		c-17.7,41.9-43.1,79.5-75.4,111.8c-32.3,32.3-69.9,57.7-111.8,75.4c-43.4,18.3-89.4,27.6-136.9,27.6c-47.5,0-93.6-9.3-136.9-27.6
		c-41.9-17.7-79.5-43.1-111.8-75.4c-32.3-32.3-57.7-69.9-75.4-111.8c-18.3-43.4-27.6-89.4-27.6-136.9c0-47.5,9.3-93.6,27.6-136.9
		c17.7-41.9,43.1-79.5,75.4-111.8C208.8,144.2,246.4,118.8,288.3,101.1z"/>
	<g>
		<path class="st0" d="M711.6,529.2c-0.5,0-1-0.1-1.5-0.3c-2.4-0.8-3.7-3.4-2.8-5.8c10.9-31.4,16.4-64.4,16.4-97.9
			c0-43.8-9.3-86.1-27.6-125.5c-17.7-38.1-42.8-71.5-74.5-99.3c-1.9-1.7-2.1-4.6-0.4-6.5c1.7-1.9,4.6-2.1,6.5-0.4
			c32.7,28.6,58.6,63.1,76.8,102.3c18.9,40.7,28.4,84.2,28.4,129.4c0,34.6-5.7,68.5-16.9,100.9C715.2,528,713.5,529.2,711.6,529.2z"
			/>
		<path class="st0" d="M346.9,317.3"/>
		<path class="st0" d="M139,529.7c-1.9,0-3.7-1.2-4.3-3.1c-11.4-32.5-17.1-66.7-17.1-101.4c0-89,38.5-173.5,105.7-232
			c1.9-1.7,4.8-1.5,6.5,0.4c1.7,1.9,1.5,4.8-0.4,6.5c-65.1,56.8-102.5,138.8-102.5,225.1c0,33.7,5.6,66.9,16.6,98.4
			c0.8,2.4-0.4,5-2.8,5.8C140,529.6,139.5,529.7,139,529.7z"/>
	</g>
	<g>
		<path class="st0" d="M250.9,571.6h6.4l-5.2,19.5h-6.4L250.9,571.6z"/>
		<path class="st0" d="M259.6,571.6h15.7c0.3,0,0.5,0.1,0.8,0.2c0.2,0.1,0.4,0.2,0.6,0.4c0.1,0.2,0.2,0.4,0.3,0.6
			c0.1,0.2,0.1,0.5,0,0.7l-4.7,17.6h-6.4l4.1-15.3h-5l-4.1,15.3h-6.4L259.6,571.6z"/>
		<path class="st0" d="M279.7,571.6h17.9l-3.3,4.2H285l-1,3.9h9.3l-0.9,3.2h-9.3l-2.2,8.1h-6.4L279.7,571.6z"/>
		<path class="st0" d="M294.3,589.9c0-0.2,0-0.5,0-0.8l4.1-15.6c0.1-0.3,0.2-0.5,0.4-0.7c0.2-0.2,0.4-0.4,0.6-0.6
			c0.2-0.2,0.5-0.3,0.8-0.4c0.3-0.1,0.6-0.2,0.8-0.2h13.6c0.3,0,0.5,0.1,0.8,0.2c0.2,0.1,0.4,0.2,0.6,0.4c0.1,0.2,0.2,0.4,0.3,0.6
			c0.1,0.2,0.1,0.5,0,0.7l-4.1,15.6c-0.1,0.3-0.2,0.5-0.4,0.8c-0.2,0.2-0.4,0.5-0.6,0.6c-0.2,0.2-0.5,0.3-0.8,0.4
			c-0.3,0.1-0.6,0.2-0.8,0.2h-13.6c-0.3,0-0.5-0.1-0.8-0.2c-0.2-0.1-0.4-0.2-0.6-0.4C294.4,590.3,294.3,590.1,294.3,589.9z
			 M306.4,586.9l2.9-11h-5l-2.9,11H306.4z"/>
		<path class="st0" d="M314.7,589.3c-0.2-0.2-0.2-0.5-0.1-0.8l3.8-14.4c0.1-0.3,0.3-0.6,0.5-0.8c0.3-0.2,0.6-0.3,0.9-0.3h17.9
			c0.3,0,0.6,0.1,0.8,0.3c0.2,0.2,0.2,0.5,0.2,0.8l-2.7,10.2c-0.2,0.7-0.7,1.1-1.5,1.1h-12.3c-0.3,0-0.6-0.1-0.8-0.3
			c-0.2-0.2-0.3-0.5-0.2-0.8l0.7-2.8c0.1-0.3,0.3-0.5,0.6-0.8c0.3-0.2,0.6-0.3,0.9-0.3h4.4l0.3-0.9h-5.6l0.6-2.4h8.1
			c0.3,0,0.6,0.1,0.8,0.3c0.2,0.2,0.2,0.5,0.2,0.8l-1.3,4.7h1.9l2-7.6h-13.1l-3.1,11.8h16.7l-0.6,2.3h-19.2
			C315.1,589.6,314.9,589.5,314.7,589.3z M327.2,583.1l0.2-0.8h-2l-0.2,0.8H327.2z"/>
		<path class="st0" d="M336.9,589.9c0-0.2,0-0.5,0-0.8l4.1-15.6c0.1-0.3,0.2-0.5,0.4-0.7c0.2-0.2,0.4-0.4,0.6-0.6
			c0.2-0.2,0.5-0.3,0.8-0.4c0.3-0.1,0.6-0.2,0.8-0.2h15.7l-3.3,4.2h-9.3l-2.9,11h11.5l-3.3,4.2h-13.6c-0.3,0-0.5-0.1-0.8-0.2
			c-0.2-0.1-0.4-0.2-0.6-0.4C337,590.3,336.9,590.1,336.9,589.9z"/>
		<path class="st0" d="M361.5,571.6h15.7c0.6,0,1,0.2,1.3,0.6c0.3,0.4,0.4,0.8,0.3,1.4l-2,7.5c-0.1,0.5-0.5,1-1,1.4
			c-0.5,0.4-1.1,0.6-1.7,0.6h-1.3l1.9,8.1h-5.7l-2.7-11.4h4.3l1-3.9h-5l-4.1,15.3h-6.4L361.5,571.6z"/>
		<path class="st0" d="M377.9,586.9h11.5l1-3.9h-9.3c-0.3,0-0.5-0.1-0.8-0.2c-0.2-0.1-0.4-0.2-0.6-0.4c-0.2-0.2-0.3-0.4-0.3-0.6
			c-0.1-0.2-0.1-0.5,0-0.8l2-7.5c0.1-0.3,0.2-0.5,0.4-0.7c0.2-0.2,0.4-0.4,0.7-0.6c0.3-0.2,0.5-0.3,0.8-0.4c0.3-0.1,0.6-0.2,0.8-0.2
			h15.8l-1.1,4.2h-11.5l-1,3.9h9.3c0.3,0,0.5,0.1,0.8,0.2c0.2,0.1,0.4,0.2,0.6,0.4c0.2,0.2,0.3,0.4,0.3,0.6c0.1,0.2,0.1,0.5,0,0.7
			l-2,7.5c-0.1,0.3-0.2,0.5-0.4,0.8c-0.2,0.2-0.4,0.5-0.7,0.6c-0.3,0.2-0.5,0.3-0.8,0.4c-0.3,0.1-0.6,0.2-0.8,0.2h-13.6L377.9,586.9
			z"/>
		<path class="st0" d="M397.4,589.9c0-0.2,0-0.5,0-0.8l4.1-15.6c0.1-0.3,0.2-0.5,0.4-0.7c0.2-0.2,0.4-0.4,0.6-0.6
			c0.2-0.2,0.5-0.3,0.8-0.4c0.3-0.1,0.6-0.2,0.8-0.2H420l-3.3,4.2h-9.3l-2.9,11h5l1-3.9H408l0.9-3.2h8.9l-3,11.4H399
			c-0.3,0-0.5-0.1-0.8-0.2c-0.2-0.1-0.4-0.2-0.6-0.4C397.6,590.3,397.4,590.1,397.4,589.9z"/>
		<path class="st0" d="M430,571.6h7.2l3.7,19.5h-14.3l1.1-4.2h5.2l-1.5-7.5l-8.5,11.7h-7.1L430,571.6z"/>
		<path class="st0" d="M447.7,571.6h15.7c0.6,0,1,0.2,1.3,0.6c0.3,0.4,0.4,0.8,0.3,1.4l-2,7.5c-0.1,0.5-0.5,1-1,1.4
			c-0.5,0.4-1.1,0.6-1.7,0.6h-1.3l1.9,8.1h-5.7l-2.7-11.4h4.3l1-3.9h-5l-4.1,15.3h-6.4L447.7,571.6z"/>
		<path class="st0" d="M476.6,571.6h7.2l3.7,19.5h-14.3l1.1-4.2h5.2l-1.5-7.5l-8.5,11.7h-7.1L476.6,571.6z"/>
		<path class="st0" d="M489.6,589.9c0-0.2,0-0.5,0-0.8l4.1-15.6c0.1-0.3,0.2-0.5,0.4-0.7c0.2-0.2,0.4-0.4,0.6-0.6
			c0.2-0.2,0.5-0.3,0.8-0.4c0.3-0.1,0.6-0.2,0.8-0.2h15.7l-3.3,4.2h-9.3l-2.9,11h5l1-3.9h-2.5l0.9-3.2h8.9l-3,11.4h-15.7
			c-0.3,0-0.5-0.1-0.8-0.2c-0.2-0.1-0.4-0.2-0.6-0.4C489.8,590.3,489.7,590.1,489.6,589.9z"/>
		<path class="st0" d="M514.4,571.6h17.9l-3.3,4.2h-9.3l-1,3.9h9.3l-0.9,3.2h-9.3l-1,3.9h11.5l-3.3,4.2h-15.7L514.4,571.6z"/>
		<path class="st0" d="M529.4,586.9h4.7l-1.1,4.2h-4.7L529.4,586.9z"/>
		<path class="st0" d="M535.7,589.9c0-0.2,0-0.5,0-0.8l4.1-15.6c0.1-0.3,0.2-0.5,0.4-0.7c0.2-0.2,0.4-0.4,0.6-0.6
			c0.2-0.2,0.5-0.3,0.8-0.4c0.3-0.1,0.6-0.2,0.8-0.2h15.7l-3.3,4.2h-9.3l-2.9,11h11.5l-3.3,4.2h-13.6c-0.3,0-0.5-0.1-0.8-0.2
			c-0.2-0.1-0.4-0.2-0.6-0.4C535.9,590.3,535.8,590.1,535.7,589.9z"/>
		<path class="st0" d="M555.6,589.9c0-0.2,0-0.5,0-0.8l4.1-15.6c0.1-0.3,0.2-0.5,0.4-0.7c0.2-0.2,0.4-0.4,0.6-0.6
			c0.2-0.2,0.5-0.3,0.8-0.4c0.3-0.1,0.6-0.2,0.8-0.2H576c0.3,0,0.5,0.1,0.8,0.2c0.2,0.1,0.4,0.2,0.6,0.4c0.1,0.2,0.2,0.4,0.3,0.6
			c0.1,0.2,0.1,0.5,0,0.7l-4.1,15.6c-0.1,0.3-0.2,0.5-0.4,0.8c-0.2,0.2-0.4,0.5-0.6,0.6c-0.2,0.2-0.5,0.3-0.8,0.4
			c-0.3,0.1-0.6,0.2-0.8,0.2h-13.6c-0.3,0-0.5-0.1-0.8-0.2c-0.2-0.1-0.4-0.2-0.6-0.4C555.8,590.3,555.7,590.1,555.6,589.9z
			 M567.7,586.9l2.9-11h-5l-2.9,11H567.7z"/>
		<path class="st0" d="M580.4,571.6h27.1c0.6,0,1,0.2,1.3,0.6c0.3,0.4,0.4,0.8,0.3,1.4l-4.7,17.6h-6.4l4.1-15.3h-5l-4.1,15.3h-6.4
			l4.1-15.3h-5l-4.1,15.3h-6.4L580.4,571.6z"/>
	</g>
	<g>
		<path class="st0" d="M266.9,606.5c0.1-0.3,0.2-0.6,0.5-0.9c0.2-0.3,0.5-0.6,0.8-0.8c0.3-0.2,0.6-0.4,1-0.5
			c0.4-0.1,0.7-0.2,1.1-0.2h17.1c0.4,0,0.7,0.1,1,0.2c0.3,0.1,0.5,0.3,0.7,0.5c0.2,0.2,0.3,0.5,0.4,0.8c0.1,0.3,0.1,0.6,0,0.9
			l-5.2,19.7c-0.1,0.3-0.2,0.6-0.5,0.9c-0.2,0.3-0.5,0.6-0.8,0.8c-0.3,0.2-0.6,0.4-1,0.5c-0.4,0.1-0.7,0.2-1.1,0.2h-17.1
			c-0.4,0-0.7-0.1-1-0.2c-0.3-0.1-0.5-0.3-0.7-0.5c-0.2-0.2-0.3-0.5-0.4-0.8c-0.1-0.3-0.1-0.6,0-0.9L266.9,606.5z M276.9,623.3
			l3.7-13.9h-6.3l-3.7,13.9H276.9z"/>
		<path class="st0" d="M291.6,618.4c0.1-0.5,0.5-1,1.2-1.4c0.6-0.4,1.3-0.6,1.9-0.7c-0.3,0-0.6-0.1-0.9-0.2
			c-0.3-0.1-0.5-0.3-0.7-0.5s-0.3-0.5-0.4-0.8c-0.1-0.3-0.1-0.6,0-0.9l2-7.4c0.1-0.3,0.2-0.6,0.5-0.9c0.2-0.3,0.5-0.6,0.8-0.8
			c0.3-0.2,0.6-0.4,1-0.5c0.4-0.1,0.7-0.2,1.1-0.2h17.1c0.4,0,0.7,0.1,1,0.2c0.3,0.1,0.5,0.3,0.7,0.5c0.2,0.2,0.3,0.5,0.4,0.8
			c0.1,0.3,0.1,0.6,0,0.9l-2,7.4c-0.1,0.3-0.2,0.6-0.5,0.9c-0.2,0.3-0.5,0.6-0.8,0.8c-0.3,0.2-0.6,0.4-1,0.5c-0.3,0.1-0.7,0.2-1,0.2
			c0.3,0,0.6,0.1,0.9,0.2c0.3,0.1,0.5,0.2,0.7,0.4c0.2,0.2,0.3,0.4,0.5,0.6c0.1,0.2,0.1,0.5,0,0.8l-2.1,7.8
			c-0.1,0.3-0.2,0.6-0.5,0.9c-0.2,0.3-0.5,0.6-0.8,0.8c-0.3,0.2-0.6,0.4-1,0.5c-0.4,0.1-0.7,0.2-1.1,0.2h-17.1c-0.3,0-0.7-0.1-1-0.2
			c-0.3-0.1-0.5-0.3-0.7-0.5c-0.2-0.2-0.3-0.5-0.4-0.8c-0.1-0.3-0.1-0.6,0-0.9L291.6,618.4z M304.7,623.3l1.3-4.9h-6.3l-1.3,4.9
			H304.7z M307.1,614.3l1.3-4.9h-6.3l-1.3,4.9H307.1z"/>
		<path class="st0" d="M322.6,606.5c0.1-0.3,0.2-0.6,0.5-0.9c0.2-0.3,0.5-0.6,0.8-0.8c0.3-0.2,0.6-0.4,1-0.5
			c0.4-0.1,0.7-0.2,1.1-0.2h19.8l-4.1,5.3H330l-0.9,3.3h11.7c0.4,0,0.7,0.1,1,0.2c0.3,0.1,0.5,0.3,0.7,0.5c0.2,0.2,0.3,0.5,0.4,0.8
			c0.1,0.3,0.1,0.6,0,0.9l-2.9,11c-0.1,0.3-0.2,0.6-0.5,0.9c-0.2,0.3-0.5,0.6-0.8,0.8c-0.3,0.2-0.6,0.4-1,0.5
			c-0.4,0.1-0.7,0.2-1.1,0.2h-17.1c-0.3,0-0.7-0.1-1-0.2c-0.3-0.1-0.5-0.3-0.7-0.5c-0.2-0.2-0.3-0.5-0.4-0.8c-0.1-0.3-0.1-0.6,0-0.9
			L322.6,606.5z M332.6,623.3l1.7-6.5H328l-1.7,6.5H332.6z"/>
		<path class="st0" d="M370.8,606.5c0.1-0.3,0.2-0.6,0.5-0.9c0.2-0.3,0.5-0.6,0.8-0.8c0.3-0.2,0.6-0.4,1-0.5
			c0.4-0.1,0.7-0.2,1.1-0.2h17.1c0.4,0,0.7,0.1,1,0.2c0.3,0.1,0.5,0.3,0.7,0.5c0.2,0.2,0.3,0.5,0.4,0.8c0.1,0.3,0.1,0.6,0,0.9
			l-5.2,19.7c-0.1,0.3-0.2,0.6-0.5,0.9c-0.2,0.3-0.5,0.6-0.8,0.8c-0.3,0.2-0.6,0.4-1,0.5c-0.4,0.1-0.7,0.2-1.1,0.2h-17.1
			c-0.4,0-0.7-0.1-1-0.2c-0.3-0.1-0.5-0.3-0.7-0.5c-0.2-0.2-0.3-0.5-0.4-0.8c-0.1-0.3-0.1-0.6,0-0.9L370.8,606.5z M380.7,623.3
			l3.7-13.9h-6.3l-3.7,13.9H380.7z"/>
		<path class="st0" d="M410.4,609.4h-12.5l1.4-5.3h22.6l-15.6,24.6h-8.1L410.4,609.4z"/>
		<path class="st0" d="M427.2,604h8.1l-3.8,14.4h6.3l1.6-6.1h8.1l-4.3,16.4h-8.1l1.6-6.1h-14.4L427.2,604z"/>
		<path class="st0" d="M471.3,616.7c0.1-0.3,0.2-0.6,0.5-0.9c0.2-0.3,0.5-0.6,0.8-0.8c0.3-0.2,0.6-0.4,1-0.5
			c0.4-0.1,0.7-0.2,1.1-0.2h11.7l1.3-4.9h-14.4l1.4-5.3h19.8c0.4,0,0.7,0.1,1,0.2c0.3,0.1,0.5,0.3,0.7,0.5c0.2,0.2,0.3,0.5,0.4,0.8
			c0.1,0.3,0.1,0.6,0,0.9l-2.5,9.4c-0.1,0.3-0.2,0.6-0.5,0.9c-0.2,0.3-0.5,0.6-0.8,0.8s-0.6,0.4-1,0.5c-0.4,0.1-0.7,0.2-1.1,0.2H479
			l-1.3,4.9h14.4l-1.4,5.3h-19.8c-0.3,0-0.7-0.1-1-0.2c-0.3-0.1-0.5-0.3-0.7-0.5c-0.2-0.2-0.3-0.5-0.4-0.8c-0.1-0.3-0.1-0.6,0-0.9
			L471.3,616.7z"/>
		<path class="st0" d="M501.9,606.5c0.1-0.3,0.2-0.6,0.5-0.9c0.2-0.3,0.5-0.6,0.8-0.8c0.3-0.2,0.6-0.4,1-0.5
			c0.4-0.1,0.7-0.2,1.1-0.2h17.1c0.4,0,0.7,0.1,1,0.2c0.3,0.1,0.5,0.3,0.7,0.5c0.2,0.2,0.3,0.5,0.4,0.8c0.1,0.3,0.1,0.6,0,0.9
			l-5.2,19.7c-0.1,0.3-0.2,0.6-0.5,0.9c-0.2,0.3-0.5,0.6-0.8,0.8c-0.3,0.2-0.6,0.4-1,0.5c-0.4,0.1-0.7,0.2-1.1,0.2h-17.1
			c-0.4,0-0.7-0.1-1-0.2c-0.3-0.1-0.5-0.3-0.7-0.5c-0.2-0.2-0.3-0.5-0.4-0.8c-0.1-0.3-0.1-0.6,0-0.9L501.9,606.5z M511.9,623.3
			l3.7-13.9h-6.3l-3.7,13.9H511.9z"/>
		<path class="st0" d="M537.5,609.4H533l4.1-5.3h9.9l-6.5,24.6h-8.1L537.5,609.4z"/>
		<path class="st0" d="M556.6,606.5c0.1-0.3,0.2-0.6,0.5-0.9c0.2-0.3,0.5-0.6,0.8-0.8c0.3-0.2,0.6-0.4,1-0.5
			c0.4-0.1,0.7-0.2,1.1-0.2h19.8l-4.1,5.3h-11.7l-0.9,3.3h11.7c0.4,0,0.7,0.1,1,0.2c0.3,0.1,0.5,0.3,0.7,0.5
			c0.2,0.2,0.3,0.5,0.4,0.8c0.1,0.3,0.1,0.6,0,0.9l-2.9,11c-0.1,0.3-0.2,0.6-0.5,0.9c-0.2,0.3-0.5,0.6-0.8,0.8
			c-0.3,0.2-0.6,0.4-1,0.5c-0.4,0.1-0.7,0.2-1.1,0.2h-17.1c-0.4,0-0.7-0.1-1-0.2c-0.3-0.1-0.5-0.3-0.7-0.5c-0.2-0.2-0.3-0.5-0.4-0.8
			c-0.1-0.3-0.1-0.6,0-0.9L556.6,606.5z M566.6,623.3l1.7-6.5H562l-1.7,6.5H566.6z"/>
	</g>
	<g>
		<path class="st0" d="M516.7,466.9c5.2-4.2,10.1-8.6,12.3-15c2.4-7.2,6.2-13.4,11.8-18.5c5.2-4.7,12.2-5.8,17.5-2.9
			c4.2,2.2,5.7,5.4,4.5,10c-1.8,6.9-6.9,11.4-12.2,15.6c-2.3,1.8-4.9,3.3-7.4,4.8c-2.8,1.7-2.8,3.3-0.1,5c2.8,1.8,5.7,1.1,8.5-0.3
			c8.1-4.1,13.5-10.8,18.5-18.2c1-1.4,1.8-3,2.9-4.4c0.9-1.2,2.1-1.2,3.2-0.4c1,0.7,1.2,1.7,0.6,2.8c-7,12.2-14.5,24.1-28.4,29.7
			c-5.8,2.3-11.8,3-17.1-1.7c-1.7-1.5-2.8-3.3-3.3-5.4c-0.6-2.2-1.5-2.6-3.3-0.9c-3.4,3.2-6.9,6.4-10.4,9.5c-1.4,1.3-1.7,3-2.3,4.6
			c-3,8.5-6.6,16.8-12.8,23.6c-3.6,3.9-7.9,6.4-13.4,6.5c-4.5,0-8.4-1.4-10.4-5.6c-2-4.2-0.8-8.2,2.3-11.5
			c5.3-5.7,11.9-9.7,18.7-13.2c6.2-3.2,5.7-8.6,6.4-14c-3.5,3.3-6.5,7-10.1,10.1c-7,6-12.4,5.3-16.6-2.7c-1.1-2.1-1.8-1.4-2.9-0.2
			c-2.1,2.2-4.1,4.7-6.7,6.4c-6.2,4-11,2.5-13.6-4.4c-1.4-3.6-1.6-3.7-4.2-0.4c-3.1,4-6.2,8.2-10.7,10.8c-5.9,3.5-11.1,1.3-13-5.3
			c-0.3-1,0-2.5-1.2-2.8c-1.4-0.4-2,1.1-2.8,1.9c-2.9,3.2-5.9,6.3-9.5,8.6c-3.6,2.3-7.7,3.2-11.4,0.6c-3.7-2.6-4-6.7-2.9-10.9
			c1.5-5.6,4.2-10.8,6.2-16.2c0.7-1.9,1.4-3.8,1.3-5.9c-0.1-1.6-0.5-3-2.2-3.4c-1.7-0.4-2.3,1-2.9,2.2c-3.7,7.6-7.7,15.1-12.7,22
			c-3.1,4.2-6.1,8.5-10.3,11.7c-6.9,5.2-11.7,3.8-14.7-4.4c-0.3-0.9-0.7-1.7-1.2-3c-2.8,3.3-5.4,6.3-8,9.3c-1.8,2-3.7,3.9-6.1,5.3
			c-5.2,3-10.3,1-12.2-4.7c-1.1-3.3-1-6.7-0.5-10c1.3-8.6,4.2-16.7,9.6-23.6c3.5-4.5,7.8-7.8,14-7.5c2.4,0.1,4.8,0.7,6.1,2.6
			c2.7,3.6,4.1,2.1,6-0.7c2.5-3.7,5.6-4.6,9-3c2.7,1.3,3.9,3.1,2.3,6.1c-1.4,2.5-2.4,5.2-4.1,7.4c-3.4,4.4-3.1,9.3-2.8,14.3
			c0.2,2.9,2.4,3.8,4.4,1.6c7.2-7.9,13-16.7,16.7-26.8c0.6-1.5-0.4-2.5-1.1-3.6c-1.6-2.7-1.1-5.1,0.8-7.4c2-2.4,4.5-4,7.7-3.5
			c2.7,0.5,2.8,3,2.3,4.9c-1,3.7,0.7,5.4,3.9,6.7c1.6,0.6,2.9,1.9,4.4,2.8c3.4,2.2,4.4,5.3,3,9.1c-1.3,3.7-2.7,7.3-4,11
			c-0.3,0.9-0.6,1.8-0.8,2.7c-0.3,1.5-0.5,3.1,1.1,4c1.4,0.8,2.6-0.3,3.5-1.3c5-5.1,9.5-10.7,12.2-17.4c2.6-6.6,6-12.7,12.1-16.6
			c5.6-3.6,10.1-3.3,14.9,1.4c2.2,2.1,3.1,1.3,4.5-0.7c3.4-4.7,6-5.6,9.7-4c2.9,1.3,3.8,3.3,2.4,6.1c-1.4,2.9-2.9,5.8-4.7,8.5
			c-2.5,3.7-2.7,7.8-2.5,12c0.1,1.4,0.1,3.1,1.8,3.7c1.7,0.6,2.7-0.7,3.7-1.8c4.2-4.6,7.6-9.7,10.1-15.4c2.6-5.8,5.9-11.2,11.3-14.9
			c5.5-3.8,10.9-3.5,15.6,1.1c1.5,1.4,2.3,1.5,3.4-0.2c0.9-1.3,2-2.6,3.2-3.6c2.5-2.2,6.3-2,8.9,0.1c2.9,2.3,1.4,4.7-0.1,6.7
			C517.5,449.9,518.5,458.7,516.7,466.9z M489.6,464.8c-0.1,2.4-0.5,4,0.9,5.1c1.1,0.9,2.1,0.1,2.9-0.6c5.8-5.7,10.9-11.8,13.3-19.8
			c0.5-1.7,0.1-3.1-1.2-4.4c-2.8-2.9-5.9-2.6-8.8,1.2C492.3,452.1,490.4,458.7,489.6,464.8z M347.1,480c0.2,1.9-0.3,3.9,1.4,4.6
			c1.5,0.7,2.8-0.6,3.8-1.7c4.6-5.2,9-10.5,11.3-17.3c1-3,1-5.5-2.1-7.2c-3.1-1.7-5.2,0.2-6.9,2.3C350.1,466.5,348,473.2,347.1,480z
			 M437.9,471c0.3,1.7-0.2,3.7,1.5,4.5c1.8,0.8,2.9-1,3.9-2.1c4.5-5.1,8.7-10.6,11.1-17.1c1.1-2.9,0.9-5.2-2-6.9
			c-3.1-1.7-5.2,0-7,2.2C440.9,457.2,439,464,437.9,471z M554.4,438.7c-0.1-1.9,0-3.4-1.4-4c-1.7-0.8-2.9,0.5-3.8,1.5
			c-3.3,4-5.6,8.5-7.3,13.4c-0.7,2.1-2.8,5.1-0.6,6.5c1.7,1,3.7-2.1,5.1-3.7C549.9,448.1,553.7,444,554.4,438.7z M498,488.3
			c0-1.1-0.6-1.6-1.5-1c-5.2,3.3-10.6,6.5-13.3,12.4c-0.6,1.3-0.5,2.7,0.6,3.7c1.2,1,2.7,1,4.2,0.5
			C491.1,502.6,498.2,491.5,498,488.3z"/>
		<path class="st0" d="M433.7,529.5c-28.3-0.6-56.7-2.3-85,0.9c-14.7,1.7-28.9,4.8-41.8,12.5c-2.4,1.5-4.6,3.2-6.6,5.3
			c-2.3,2.4-3.5,1.6-4.5-1.2c-1.3-3.7,0.1-8.1,3.6-11.2c6.9-6.1,15.4-8.7,24-10.8c20.1-5.1,40.6-5.9,61.2-6.3
			c27.6-0.4,55.1-0.1,82.7-1.3c20.3-0.9,40.5-2.2,60.4-6.9c7.5-1.8,14.8-4.2,20.8-9.3c1.8-1.5,3-1.1,4.2,0.8
			c3.9,6.3,2.4,13.9-3.6,18.2c-5.8,4.3-12.7,5.6-19.6,6.8c-18.8,3.2-37.8,2.4-56.7,2.5C459.8,529.5,446.8,529.5,433.7,529.5z"/>
		<path class="st0" d="M272.6,477.8c1.6-19.4,11.9-33.2,28.2-42.8c8.4-5,17.5-7.7,27.4-6.2c10.3,1.5,15.3,9.7,11.8,19.5
			c-2.8,8-8.5,12.9-17.1,14c-2.2,0.3-4.3,0-6.2-1.1c-1.8-1-2.6-2.7-2.6-4.7c0-2.2,1.8-2.3,3.4-2.8c4.8-1.4,9.1-3.4,11.5-8.1
			c1.5-2.9,2.1-5.9,0-8.8c-2-2.8-5-2.9-8-2.5c-7.8,1.1-13.9,5.4-19.2,11c-8.3,8.7-13.5,18.7-13.1,31c0.2,5.9,2.2,10.9,7.9,13.5
			c5.2,2.3,10.2,1.3,14.9-1.7c1.6-1.1,2.8-2.5,3.6-4.2c2-4.1,4.2-8.1,7.5-11.4c1.2-1.2,2.5-2.4,4.3-2.8c1.9-0.4,3.8-0.2,5.2,1.3
			c1.5,1.6,0.6,3.3,0,4.9c-1.7,4.1-4.7,7.4-6,11.8c-2.6,8.7-3.8,17.6-3.9,26.6c0,2.8,1.5,6.4-3.5,7c-5.8,0.7-9.7-1.1-11.1-5.6
			c-0.5-1.8-0.6-3.7-0.3-5.6c0.5-3.3,1.2-6.6,1.9-9.9c0.2-0.9,0.7-2-0.2-2.6c-0.9-0.7-1.8,0-2.6,0.4c-3,1.5-6.1,2.7-9.5,3.4
			c-11.7,2.1-20.4-3.4-23.4-14.9C272.9,483.5,272.6,480.7,272.6,477.8z"/>
	</g>
	<g>
		<path class="st0" d="M459.2,361.1c3.4,1.4,6.9,1.8,10.1,3.2c5,2.2,8.4,5.6,8.9,11.2c0.3,3,1.6,4.1,4.6,4.1
			c33.9-0.1,67.7-0.2,101.6,0c4,0,4.9-2.1,5.7-5.2c2.4-9.3-0.6-13.5-10-13.5c-21.8,0-43.6,0-65.3-0.1c-5.8,0-6-0.2-3.7-5.5
			c7.3-16.6,16.7-31.5,33.1-40.7c7-3.9,14.4-6.1,22.5-6.1c35,0.1,70,0,105-0.1c5.3,0,5.5,0.3,3.1,5.1c-1,1.9-2.3,3.6-2.8,5.6
			c-1.7,6.5-6.1,7.3-12.1,7.2c-20.9-0.3-41.9-0.3-62.8,0c-9.7,0.1-18,3.8-23.8,12.1c-1,1.5-2.6,3.1-1.6,4.9c0.9,1.6,3.1,1,4.7,1
			c17.4,0.1,34.8,0.1,52.3,0.1c3.3,0,6.4,0.6,9.5,1.6c6.4,2.2,9.9,7.3,9.8,14.1c-0.1,4-0.9,7.8-2.6,11.4
			c-3.5,7.3-7.2,14.6-10.5,22.1c-1.4,3-3.6,3.4-6.4,3.4c-55.1,0-110.2,0-165.3,0c-12.9,0-25.9-0.1-38.8,0c-3.6,0-4.6-0.7-2.7-4.3
			c2.4-4.6,4.4-9.4,6.5-14.1c1-2.2,2-4.4,2.3-6.7c0.9-6-1.6-9.7-7.7-10.1c-6.2-0.4-12.4-0.1-18.5-0.1c-2.4,0-3.3,1.5-4.3,3.4
			c-4.8,9.4-9.8,18.7-14.4,28.1c-1.3,2.5-2.9,3.4-5.6,3.4c-15,0-30.1,0-45.1,0.1c-2.8,0-3.6-0.9-2.2-3.5
			c7.9-15.5,15.7-31.1,23.5-46.7c1.6-3.1,4.4-2.6,7-2.6c22.5,0,45,0,67.4,0c4.4,0,8.7-0.8,12.7-2.5c2.5-1,4.7-2.6,6.2-4.9
			c3-4.5,1.4-8.6-3.7-10.2c-2.6-0.8-5.2-1-7.9-1c-53.7,0-107.4,0.1-161,0c-12.3,0-20.6,5.9-25.9,16.3c-5.7,11-10.9,22.2-16.2,33.3
			c-2,4.2-1.7,4.7,3.1,4.7c24.3,0,48.6,0,72.9,0c2,0,3.9,0.1,5.9,0c3.2-0.1,4.4,0.7,2.7,4.2c-6.3,12.6-6.2,12.7-20.2,12.7
			c-41,0-82.1,0-123.1,0c-5,0-5.2-0.3-2.9-4.9c8.1-16.3,16.2-32.7,24.4-49c7.8-15.6,18.9-27.5,36.2-32.4c4.1-1.2,8.2-1.8,12.4-1.8
			c80.2,0,160.5,0,240.7,0c3.1,0,6.1,0.3,9.2,1c10.1,2.5,14.1,10.1,10.4,19.9c-5.3,13.9-15.4,22.8-29.4,27.4
			C471,358.4,465.2,359.8,459.2,361.1z"/>
		<path class="st0" d="M424,402.8c-1.7,0-6.1,0-8.4-3.8c-2.3-3.8-0.1-7.9,0.6-9.2c1.6-3,2.9-6.1,4.4-9.4c0.6-1.5,1.3-3,2-4.5
			c0.9-2.1,1.6-3.6,1.9-5.2c0.3-1.8,0-2.6-0.1-2.7c-0.1-0.1-0.7-0.4-2-0.5c-2.2-0.1-4.6-0.2-7.5-0.2c-1.6,0-3.2,0-4.8,0l-0.1,0
			c-1.5,0-3.1,0-4.6,0c0,0-0.1,0.1-0.1,0.2c-1.9,3.7-3.9,7.5-5.8,11.2c-2.9,5.5-5.8,11.2-8.6,16.8c-2.2,4.5-5.9,6.8-10.9,6.8
			c-4,0-8,0-12,0c-11.4,0-22.7,0-33.1,0.1c-3.7,0-6.3-1.2-7.8-3.6c-1.5-2.4-1.4-5.3,0.2-8.6c8-15.7,16-31.7,23.4-46.6
			c2-3.9,5.5-5.9,10.4-5.9c0.4,0,0.7,0,1.1,0l0.1,0c0.2,0,0.5,0,0.7,0c10.7,0,21.5,0,32.3,0c11.8,0,23.6,0,35.2,0
			c3.8,0,7.1-0.7,10.4-2c1.6-0.7,2.8-1.6,3.5-2.7c0.2-0.3,0.4-0.6,0.4-0.8c-0.2-0.1-0.5-0.2-0.9-0.4c-1.6-0.5-3.5-0.7-6.2-0.7
			c-14.3,0-28.6,0-42.9,0l-1.6,0c-20.6,0-41.3,0-61.9,0c-20.3,0-38.2,0-54.7,0c-9.5,0-16,4.1-20.6,13c-4.1,8-8.1,16.3-11.9,24.3
			c-0.8,1.7-1.6,3.4-2.4,5.1l6.2,0c14,0,28,0,42,0l20.6,0c0.8,0,1.5,0,2.3,0c1.2,0,2.4,0,3.5,0c0.2,0,0.3,0,0.5,0
			c3.8,0,6.5,1.2,8,3.7c2.3,3.8,0.3,7.8-0.3,9.1l-0.2,0.4c-3.4,6.9-5.3,10.7-9.3,13.2c-4,2.5-8.3,2.5-16.1,2.5
			c-35.6,0-71.7,0-106.8,0h-16.4c-3.1,0-7.1,0-9.2-3.5c-2.2-3.6-0.4-7.1,1-10l6.8-13.6c5.7-11.6,11.7-23.5,17.6-35.4
			c9.5-18.9,22.5-30.5,39.9-35.5c4.9-1.4,9.5-2.1,14.1-2.1c67,0,138.1,0,224,0h16.7c3.8,0,7.3,0.4,10.6,1.2
			c6.7,1.7,11.6,5.2,14.2,10.2c2.6,5,2.7,11.1,0.3,17.5c-5.8,15.2-17,25.6-33.2,30.9c-0.3,0.1-0.6,0.2-0.9,0.3
			c4.2,3.5,5.7,7.7,6.3,11.1c18,0,39.1-0.1,60-0.1c14.3,0,27.5,0,40.1,0.1c0.1-0.2,0.1-0.4,0.2-0.7c1.1-4.1,0.4-5.2,0.4-5.2l0,0
			c0,0-0.9-0.8-4.7-0.8c-12,0-24,0-36,0c-9.8,0-19.5,0-29.3,0c-3.8,0-7.6,0-9.9-3.5c-2.3-3.5-0.7-7,0.8-10.4
			c6.3-14.5,16.1-32.6,35.7-43.6c8.2-4.6,16.5-6.9,25.4-6.9c0,0,0.1,0,0.1,0c8.2,0,16.3,0,24.5,0c16.7,0,33.6,0,50.1,0l1.1,0
			c9.8,0,19.6,0,29.4,0l0.1,0c3.2,0,7.2,0,9.4,3.6c2.2,3.6,0.4,7.1-1.1,10.1c-0.4,0.8-0.8,1.5-1.2,2.1c-0.5,0.9-1,1.8-1.2,2.3
			c-3.1,11.6-13.2,11.6-17,11.6c-0.3,0-0.6,0-1,0c-9.4-0.2-19.3-0.2-29.5-0.2c-10.5,0-21.3,0.1-33.2,0.2c-6.5,0.1-11.9,2.1-16,6
			c14.8,0,29.5,0.1,43.8,0.1l3.7,0c3.9,0,7.7,0.7,11.5,2c9,3.1,14,10.4,13.8,19.9c-0.1,5-1.2,9.7-3.2,13.9c-1,2.2-2.1,4.3-3.2,6.5
			l-0.2,0.4c-2.4,4.9-4.9,10-7.1,15c-3.1,6.9-9.5,6.9-11.9,6.9c-43.4,0-86.8,0-130.2,0l-35.4,0c-3.8,0-7.6,0-11.4,0
			c-3.8,0-7.6,0-11.5,0c-6,0-10.9,0-15.4,0.1L424,402.8z M414.7,364.9c3,0,5.5,0.1,7.7,0.2c1.3,0.1,2.9,0.4,3.8,1.4
			c0.9,1.1,0.8,3.1,0.6,4.6c-0.3,1.8-1,3.6-2.1,5.8c-0.7,1.5-1.3,3-2,4.4c-1.5,3.3-2.8,6.4-4.5,9.5c-0.7,1.3-2.2,4.2-0.6,6.9
			c1.6,2.6,4.8,2.6,6.3,2.6l0.3,0c4.6,0,9.5-0.1,15.5-0.1c3.8,0,7.7,0,11.5,0c3.8,0,7.6,0,11.4,0l35.4,0c43.4,0,86.8,0,130.2,0
			c2.3,0,7.2,0,9.7-5.5c2.3-5.1,4.8-10.2,7.2-15.1l0.2-0.4c1.1-2.2,2.1-4.3,3.1-6.5c1.9-3.9,2.9-8.2,3-12.9
			c0.2-8.4-4.2-14.8-12.2-17.6c-3.5-1.2-7.1-1.8-10.7-1.8l-3.7,0c-15.2,0-30.8,0-46.5-0.1c-0.5,0-0.9-0.3-1.1-0.7
			c-0.2-0.4-0.1-0.9,0.2-1.3c4.7-5.8,11.3-8.7,19.6-8.9c11.8-0.2,22.7-0.2,33.2-0.2c10.2,0,20.1,0.1,29.5,0.2c0.3,0,0.6,0,0.9,0
			c3.9,0,12,0,14.7-9.9c0.2-0.9,0.8-1.9,1.4-2.9c0.4-0.6,0.8-1.3,1.1-2c1.4-2.8,2.7-5.4,1.2-7.8c-1.5-2.4-4.5-2.4-7.4-2.4l-0.1,0
			c-9.8,0-19.6,0-29.4,0l-1.1,0c-16.4,0-33.4,0-50.1,0c-8.2,0-16.3,0-24.5,0c0,0,0,0,0,0c-8.5,0-16.4,2.1-24.3,6.6
			c-18.9,10.6-28.5,28.2-34.7,42.4c-1.3,3.1-2.5,5.8-0.9,8.2c1.6,2.4,4.5,2.4,7.9,2.4c9.8,0,19.5,0,29.3,0c12,0,24,0,36,0
			c4.3,0,5.9,1,6.6,1.8c0.6,0.8,1.2,2.8,0,7.3c-0.2,0.8-0.4,1.4-0.6,1.8c-0.2,0.4-0.5,0.7-1,0.7c-0.2,0-0.4,0-0.7,0
			c-12.7,0-25.9-0.1-40.4-0.1c-21.3,0-42.8,0-61,0.1c0,0,0,0,0,0c-0.6,0-1.1-0.5-1.2-1.1c-0.5-5-3-9-7.3-11.9
			c-0.4-0.3-0.6-0.7-0.5-1.2c0.1-0.5,0.4-0.8,0.8-1c1-0.3,2.1-0.6,3.1-1c15.5-5.1,26.1-15,31.7-29.5c2.2-5.8,2.1-11.2-0.2-15.6
			c-2.3-4.4-6.7-7.5-12.7-9c-3.1-0.8-6.4-1.1-10-1.1h-16.7c-85.9,0-157,0-224,0c-4.4,0-8.8,0.6-13.4,2c-16.7,4.8-29.3,16-38.4,34.2
			c-6,11.9-11.9,23.8-17.6,35.4l-6.8,13.6c-1.3,2.6-2.6,5.3-1.1,7.7c1.5,2.4,4.4,2.4,7.2,2.4h16.4c35,0,71.2,0,106.8,0
			c7.4,0,11.4,0,14.8-2.1c3.4-2.1,5.2-5.7,8.4-12.2l0.2-0.4c0.9-1.8,1.9-4.4,0.4-6.8c-1.4-2.3-4.1-2.6-6-2.6l-0.4,0
			c-1.2,0-2.4,0-3.6,0c-0.7,0-1.4,0-2.2,0l-20.7,0c-14,0-28,0-42,0l-8.1,0c-0.4,0-0.8-0.2-1-0.6c-0.2-0.3-0.2-0.8-0.1-1.2
			c1.1-2.3,2.2-4.5,3.2-6.8c3.8-8,7.8-16.3,11.9-24.3c5-9.8,12.2-14.3,22.7-14.3c16.6,0,34.5,0,54.8,0c20.6,0,41.3,0,61.9,0l1.6,0
			c14.3,0,28.6,0,42.9,0c3,0,5,0.2,6.9,0.8c1.4,0.4,2.3,1.1,2.6,1.8c0.3,0.7,0,1.8-0.8,2.9c-1,1.5-2.5,2.7-4.6,3.6
			c-3.6,1.5-7.2,2.2-11.3,2.2c-11.6,0-23.5,0-35.3,0c-10.8,0-21.5,0-32.3,0c-0.3,0-0.5,0-0.8,0l-0.1,0c-0.3,0-0.7,0-1,0
			c-1.6,0-6,0-8.3,4.6c-7.5,15-15.5,30.9-23.4,46.7c-0.8,1.6-1.7,4-0.3,6.2c1.4,2.2,3.9,2.5,5.7,2.5c14.2-0.1,29.7-0.1,45.2-0.1
			c4.2,0,7-1.7,8.8-5.4c2.8-5.7,5.8-11.3,8.6-16.8c1.9-3.7,3.9-7.5,5.8-11.2c0.2-0.4,0.4-0.7,0.5-0.9c0.2-0.4,0.6-0.6,1-0.6
			c0,0,0,0,0,0l0.3,0c1.7,0,3.3,0,5,0l0.1,0C411.5,365,413.1,364.9,414.7,364.9z M444.8,331.9L444.8,331.9L444.8,331.9z"/>
	</g>
</g>
</svg>
